<svg width="381.7" height="101.1" viewBox="0 0 381.7 101.1" xmlns="http://www.w3.org/2000/svg"><g id="svgGroup" stroke-linecap="round" fill-rule="evenodd" font-size="9pt" stroke="#ffffff" stroke-width="0.25mm" fill="#2AAA8A" style="stroke:#ffffff;stroke-width:0.25mm;fill:#2AAA8A"><path d="M 79 13.2 L 79 68.7 A 19.016 19.016 0 0 1 78.821 71.424 Q 78.176 75.86 75.2 76.8 Q 73.3 77.4 70.4 77.4 A 27.537 27.537 0 0 1 68.705 77.351 Q 66.969 77.244 65.8 76.9 A 12.282 12.282 0 0 1 64.771 76.55 Q 63.805 76.17 63.2 75.7 A 3.989 3.989 0 0 1 62.272 74.657 A 5.538 5.538 0 0 1 61.8 73.7 A 9.118 9.118 0 0 1 61.558 72.601 Q 61.361 71.387 61.314 69.628 A 42.895 42.895 0 0 1 61.3 68.5 L 61.3 35 A 92.163 92.163 0 0 0 59.906 36.778 Q 57.6 39.788 54 44.85 A 1486.502 1486.502 0 0 1 52.323 47.204 Q 49.223 51.546 48.082 53.061 A 41.454 41.454 0 0 1 47.9 53.3 Q 46.6 55 46.1 55.65 A 2.708 2.708 0 0 1 45.773 55.994 Q 45.19 56.522 43.928 57.284 A 31.115 31.115 0 0 1 43.65 57.45 Q 41.7 58.6 39.45 58.6 Q 37.2 58.6 35.35 57.55 A 15.405 15.405 0 0 1 34.296 56.899 Q 33.25 56.188 32.7 55.5 L 31.9 54.4 A 78.866 78.866 0 0 1 30.838 53.036 Q 28.609 50.117 24 43.75 Q 18.1 35.6 17.6 35 L 17.6 68.7 Q 17.6 71 17.45 72.15 A 5.353 5.353 0 0 1 17.201 73.184 Q 16.956 73.902 16.5 74.7 A 4.097 4.097 0 0 1 14.751 76.319 Q 13.198 77.132 10.556 77.334 A 24.476 24.476 0 0 1 8.7 77.4 Q 4.302 77.4 2.295 75.996 A 3.88 3.88 0 0 1 1.1 74.7 A 9.3 9.3 0 0 1 0.566 73.616 Q 0.332 73.045 0.219 72.512 A 5.013 5.013 0 0 1 0.15 72.1 Q 0 70.9 0 68.5 L 0 13 Q 0 10.7 0.15 9.55 Q 0.3 8.4 1.1 6.9 Q 2.336 4.758 6.828 4.381 A 24.822 24.822 0 0 1 8.9 4.3 Q 11.199 4.3 12.955 4.771 A 10.465 10.465 0 0 1 13.55 4.95 A 14.026 14.026 0 0 1 14.437 5.277 Q 15.269 5.618 15.742 5.973 A 2.232 2.232 0 0 1 16.1 6.3 L 16.7 6.9 L 39.4 36.7 Q 53.287 18.32 59.634 10.15 A 442.807 442.807 0 0 1 62.1 7 Q 63.56 4.681 68.45 4.354 A 25.501 25.501 0 0 1 70.15 4.3 A 22.935 22.935 0 0 1 72.686 4.429 Q 75.255 4.716 76.648 5.645 A 3.652 3.652 0 0 1 77.9 7 A 11.045 11.045 0 0 1 78.408 8.08 Q 78.756 8.949 78.85 9.7 A 14.565 14.565 0 0 1 78.923 10.462 Q 79 11.547 79 13.2 Z M 208.4 12.1 L 206.5 23.4 L 211.6 23.4 Q 213.5 23.4 214.35 23.55 Q 215.2 23.7 216 24.6 A 2.864 2.864 0 0 1 216.568 25.61 Q 216.8 26.307 216.8 27.25 Q 216.8 29 216.45 31.05 A 8.003 8.003 0 0 1 215.653 33.451 A 7.233 7.233 0 0 1 214.9 34.6 Q 213.814 35.958 212.81 36.25 A 2.077 2.077 0 0 1 212.6 36.3 A 9.203 9.203 0 0 1 211.894 36.397 Q 211.119 36.476 210.01 36.494 A 42.523 42.523 0 0 1 209.3 36.5 L 204.3 36.5 L 202.5 47.5 L 207.6 47.5 Q 209.5 47.5 210.35 47.65 Q 211.2 47.8 212 48.7 A 2.864 2.864 0 0 1 212.568 49.71 Q 212.8 50.407 212.8 51.35 Q 212.8 53.1 212.5 54.8 A 13.313 13.313 0 0 1 211.988 56.808 A 11.287 11.287 0 0 1 211.55 57.9 Q 210.9 59.3 209.8 59.9 Q 208.233 60.684 205.419 60.7 A 20.731 20.731 0 0 1 205.3 60.7 L 200.3 60.7 Q 199.3 66.9 199.1 68.4 L 198.9 69.5 Q 198.5 71.7 198.25 72.6 A 5.48 5.48 0 0 1 198.017 73.258 Q 197.733 73.931 197.216 74.773 A 17.687 17.687 0 0 1 197.2 74.8 Q 195.88 76.698 191.701 77.03 A 24.07 24.07 0 0 1 189.8 77.1 A 13.607 13.607 0 0 1 187.829 76.97 Q 184 76.406 184 73.4 Q 184 73.313 184.605 69.443 A 2817.83 2817.83 0 0 1 184.8 68.2 L 186 60.7 L 171.1 60.7 Q 170.1 66.9 169.9 68.4 L 169.7 69.5 Q 169.3 71.7 169.05 72.6 A 5.48 5.48 0 0 1 168.817 73.258 Q 168.533 73.931 168.016 74.773 A 17.687 17.687 0 0 1 168 74.8 Q 166.68 76.698 162.501 77.03 A 24.07 24.07 0 0 1 160.6 77.1 A 13.607 13.607 0 0 1 158.629 76.97 Q 154.8 76.406 154.8 73.4 Q 154.8 73.313 155.405 69.443 A 2817.83 2817.83 0 0 1 155.6 68.2 L 156.8 60.7 L 150.2 60.7 A 15.031 15.031 0 0 1 148.579 60.62 Q 145.831 60.32 145.2 58.9 A 3.701 3.701 0 0 1 145.042 58.327 Q 144.92 57.716 144.903 56.843 A 14.92 14.92 0 0 1 144.9 56.55 Q 144.9 55.228 145.155 53.542 A 31.258 31.258 0 0 1 145.25 52.95 A 7.6 7.6 0 0 1 146.179 50.352 A 7.133 7.133 0 0 1 146.85 49.4 A 8.403 8.403 0 0 1 147.522 48.677 Q 148.277 47.963 148.973 47.755 A 2.114 2.114 0 0 1 149.2 47.7 A 9.203 9.203 0 0 1 149.906 47.603 Q 150.681 47.524 151.79 47.506 A 42.523 42.523 0 0 1 152.5 47.5 L 159 47.5 L 160.8 36.5 L 154.2 36.5 Q 149.9 36.5 149.2 34.8 A 4.903 4.903 0 0 1 149.029 34.11 Q 148.9 33.384 148.9 32.4 A 15.982 15.982 0 0 1 148.958 31.09 Q 149.042 30.067 149.25 28.85 A 7.6 7.6 0 0 1 150.179 26.252 A 7.133 7.133 0 0 1 150.85 25.3 A 8.403 8.403 0 0 1 151.522 24.577 Q 152.277 23.863 152.973 23.655 A 2.114 2.114 0 0 1 153.2 23.6 A 9.203 9.203 0 0 1 153.906 23.503 Q 154.681 23.424 155.79 23.406 A 42.523 42.523 0 0 1 156.5 23.4 L 163 23.4 L 164.7 13.1 Q 164.796 12.522 164.939 11.25 A 107.601 107.601 0 0 0 164.95 11.15 Q 165.099 9.811 165.248 9.259 A 3.137 3.137 0 0 1 165.25 9.25 Q 165.365 8.829 165.568 8.144 A 128.633 128.633 0 0 1 165.7 7.7 A 4.237 4.237 0 0 1 165.906 7.146 Q 166.168 6.578 166.55 6.3 Q 167.1 5.9 168 5.3 Q 169.108 4.588 171.656 4.439 A 24.883 24.883 0 0 1 173.1 4.4 Q 176.8 4.4 178.25 5.45 A 3.4 3.4 0 0 1 179.631 7.732 A 5.193 5.193 0 0 1 179.7 8.6 A 1.442 1.442 0 0 1 179.692 8.72 Q 179.641 9.263 179.255 11.749 A 419.214 419.214 0 0 1 179.2 12.1 L 177.3 23.4 L 192.2 23.4 L 193.9 13.1 Q 193.996 12.522 194.139 11.25 A 107.601 107.601 0 0 0 194.15 11.15 Q 194.299 9.811 194.448 9.259 A 3.137 3.137 0 0 1 194.45 9.25 Q 194.565 8.829 194.768 8.144 A 128.633 128.633 0 0 1 194.9 7.7 A 4.237 4.237 0 0 1 195.106 7.146 Q 195.368 6.578 195.75 6.3 Q 196.3 5.9 197.2 5.3 Q 198.308 4.588 200.856 4.439 A 24.883 24.883 0 0 1 202.3 4.4 Q 206 4.4 207.45 5.45 A 3.4 3.4 0 0 1 208.831 7.732 A 5.193 5.193 0 0 1 208.9 8.6 A 1.442 1.442 0 0 1 208.892 8.72 Q 208.838 9.3 208.4 12.1 Z M 140.3 36.8 L 114.1 95.4 Q 113.441 96.966 112.951 97.921 A 14.856 14.856 0 0 1 112.75 98.3 A 4.95 4.95 0 0 1 112.092 99.216 Q 111.751 99.595 111.307 99.959 A 9.008 9.008 0 0 1 111 100.2 A 4.409 4.409 0 0 1 109.167 100.994 A 6.117 6.117 0 0 1 108 101.1 A 6.369 6.369 0 0 1 106.853 100.981 Q 105.663 100.761 104.01 100.132 A 34.446 34.446 0 0 1 102.7 99.6 A 19.441 19.441 0 0 1 100.401 98.415 Q 97.889 96.879 97.13 95.046 A 4.258 4.258 0 0 1 96.8 93.4 Q 96.8 91 106.4 70.5 L 86.5 37 Q 84.526 33.743 84.5 32.142 A 2.614 2.614 0 0 1 84.5 32.1 Q 84.5 29.345 88.502 26.591 A 24.453 24.453 0 0 1 89.9 25.7 Q 93.3 23.7 95.2 23.7 A 7.397 7.397 0 0 1 96.501 23.808 Q 97.541 23.994 98.3 24.5 A 8.519 8.519 0 0 1 99.079 25.081 Q 99.698 25.605 100.05 26.15 Q 100.6 27 105.55 35.45 Q 110.5 43.9 115 51.2 A 14.148 14.148 0 0 1 115.342 50.278 Q 116.222 48.078 119.039 41.846 A 1096.12 1096.12 0 0 1 120.4 38.85 Q 125.3 28.1 125.65 27.4 A 5.986 5.986 0 0 1 125.913 26.933 Q 126.25 26.388 126.8 25.7 A 4.21 4.21 0 0 1 129.879 24.027 A 5.99 5.99 0 0 1 130.45 24 Q 132.173 24 134.354 24.753 A 22.172 22.172 0 0 1 136 25.4 Q 141.9 28 141.9 31.7 Q 141.9 33.5 141.1 35.1 Q 140.3 36.7 140.3 36.8 Z M 246.6 25.5 L 253.1 24.9 A 19.016 19.016 0 0 1 255.824 25.079 Q 260.26 25.724 261.2 28.7 Q 261.62 30.029 261.746 31.946 A 26.787 26.787 0 0 1 261.8 33.7 A 24.352 24.352 0 0 1 261.737 35.515 Q 261.668 36.432 261.525 37.206 A 9.679 9.679 0 0 1 261.15 38.65 A 5.936 5.936 0 0 1 260.542 39.913 A 4.178 4.178 0 0 1 259.1 41.3 A 7.592 7.592 0 0 1 257.367 42.002 Q 255.692 42.468 253.324 42.498 A 25.901 25.901 0 0 1 253 42.5 L 246.6 42.1 L 246.6 68.9 A 24.309 24.309 0 0 1 246.525 70.883 Q 246.333 73.22 245.65 74.55 A 4.866 4.866 0 0 1 244.277 76.227 A 4.833 4.833 0 0 1 242.75 77 A 11.695 11.695 0 0 1 241.163 77.36 Q 240.321 77.494 239.335 77.554 A 27.347 27.347 0 0 1 237.7 77.6 A 24.352 24.352 0 0 1 235.885 77.537 Q 234.968 77.468 234.194 77.325 A 9.679 9.679 0 0 1 232.75 76.95 Q 230.9 76.3 230.1 74.85 Q 229.472 73.712 229.244 72.727 A 5.218 5.218 0 0 1 229.15 72.2 A 14.565 14.565 0 0 1 229.078 71.438 Q 229 70.353 229 68.7 L 229 42.2 L 225.4 42.2 A 11.824 11.824 0 0 1 224.09 42.031 Q 222.739 41.772 221.958 41.209 A 2.955 2.955 0 0 1 221.7 41 Q 220.091 39.391 219.845 35.274 A 26.362 26.362 0 0 1 219.8 33.7 A 16.784 16.784 0 0 1 220.034 30.758 Q 220.954 25.618 225.49 25.503 A 8.265 8.265 0 0 1 225.7 25.5 L 229 25.5 L 229 20.2 A 20.295 20.295 0 0 1 233.595 7.335 A 26.223 26.223 0 0 1 234.5 6.25 A 17.729 17.729 0 0 1 243.829 0.739 Q 246.731 0.023 250.177 0.001 A 34.35 34.35 0 0 1 250.4 0 Q 252.7 0 253.85 0.15 Q 255 0.3 256.5 1.1 A 3.654 3.654 0 0 1 258.105 2.718 Q 258.895 4.166 259.115 6.692 A 24.394 24.394 0 0 1 259.2 8.8 A 21.54 21.54 0 0 1 259.08 11.16 Q 258.748 14.158 257.5 15.7 Q 256.341 17.025 254.084 17.39 A 10.575 10.575 0 0 1 253.1 17.5 L 250.3 17.5 Q 246.719 17.5 246.604 19.842 A 3.221 3.221 0 0 0 246.6 20 L 246.6 25.5 Z M 379.7 38.1 L 359 73.6 A 7.455 7.455 0 0 1 357.712 75.201 Q 357.066 75.82 356.221 76.381 A 13.717 13.717 0 0 1 355.8 76.65 A 9.907 9.907 0 0 1 353.885 77.573 A 7.358 7.358 0 0 1 351.45 78 Q 349.3 78 347.35 76.95 A 13.434 13.434 0 0 1 346.244 76.289 Q 345.15 75.557 344.6 74.8 L 343.7 73.7 L 322.9 38.1 Q 321.175 35.254 320.938 33.301 A 4.983 4.983 0 0 1 320.9 32.7 A 5.426 5.426 0 0 1 321.931 29.593 Q 323.132 27.842 325.729 26.226 A 22.821 22.821 0 0 1 326.1 26 Q 329.157 24.23 331.178 23.884 A 5.478 5.478 0 0 1 332.1 23.8 A 5.765 5.765 0 0 1 333.559 23.974 A 4.044 4.044 0 0 1 335.55 25.15 A 11.216 11.216 0 0 1 336.407 26.209 Q 337.242 27.368 338.14 29.085 A 37.362 37.362 0 0 1 338.2 29.2 L 351.3 54.4 L 364.4 29.2 Q 365.459 27.371 366.008 26.515 A 20.166 20.166 0 0 1 366.05 26.45 Q 366.471 25.8 367.272 25.149 A 10.122 10.122 0 0 1 367.8 24.75 Q 368.807 24.037 370.376 23.922 A 8.548 8.548 0 0 1 371 23.9 Q 373 23.9 376.5 26 Q 380.832 28.583 381.555 31.443 A 4.704 4.704 0 0 1 381.7 32.6 A 5.639 5.639 0 0 1 381.524 33.92 Q 381.202 35.246 380.292 37.013 A 28.462 28.462 0 0 1 379.7 38.1 Z M 316.9 33.6 L 316.9 68.6 Q 316.9 70.9 316.75 72.05 Q 316.634 72.942 316.186 74.045 A 13.967 13.967 0 0 1 315.9 74.7 Q 314.645 77.03 310.137 77.272 A 20.324 20.324 0 0 1 309.05 77.3 A 34.558 34.558 0 0 1 306.693 77.226 Q 303.166 76.984 301.75 75.95 A 5.14 5.14 0 0 1 299.776 72.968 A 7.261 7.261 0 0 1 299.6 72 Q 296.216 76.847 288.692 77.261 A 26.243 26.243 0 0 1 287.25 77.3 A 19.241 19.241 0 0 1 276.558 73.978 Q 273.802 72.177 271.2 69.4 Q 263.8 61.5 263.8 51.05 Q 263.8 40.6 271.25 32.75 A 29.164 29.164 0 0 1 276.73 28.161 A 19.942 19.942 0 0 1 287.6 24.9 A 16.744 16.744 0 0 1 291.426 25.323 A 14.271 14.271 0 0 1 293.8 26.1 Q 296.06 27.069 297.213 27.94 A 5.566 5.566 0 0 1 297.7 28.35 A 16.559 16.559 0 0 1 298.643 29.323 Q 299.128 29.869 299.5 30.4 A 6.265 6.265 0 0 1 300.477 27.523 Q 302.055 25.179 306.046 24.853 A 16.638 16.638 0 0 1 307.4 24.8 Q 311.3 24.8 313.2 25.4 A 5.328 5.328 0 0 1 314.44 25.962 A 3.806 3.806 0 0 1 315.85 27.5 Q 316.405 28.61 316.631 29.528 A 5.657 5.657 0 0 1 316.75 30.15 A 13.228 13.228 0 0 1 316.823 30.888 Q 316.9 31.947 316.9 33.6 Z M 281.3 51.2 Q 281.3 54.5 283.9 57.15 A 8.487 8.487 0 0 0 290.056 59.799 A 10.244 10.244 0 0 0 290.2 59.8 A 8.287 8.287 0 0 0 293.731 59.06 A 8.174 8.174 0 0 0 296.35 57.1 A 9.997 9.997 0 0 0 298.022 54.638 A 8.109 8.109 0 0 0 298.8 51.15 A 8.873 8.873 0 0 0 297.252 46.171 A 11.733 11.733 0 0 0 296.45 45.1 A 7.66 7.66 0 0 0 290.877 42.325 A 10.542 10.542 0 0 0 290.15 42.3 A 9.033 9.033 0 0 0 286.994 42.831 A 7.92 7.92 0 0 0 283.75 45.1 A 10.495 10.495 0 0 0 282.075 47.646 A 8.463 8.463 0 0 0 281.3 51.2 Z M 173.3 47.5 L 188.2 47.5 L 190 36.5 L 175.2 36.5 L 173.3 47.5 Z" vector-effect="non-scaling-stroke"/></g></svg>