<svg width="504" height="120" viewBox="0 0 504 120" fill="none" xmlns="http://www.w3.org/2000/svg">
<rect width="504" height="120" fill="white" fill-opacity="0.92"/>
<path d="M72.378 5.39999H92.602C93.5407 5.39999 94.3513 5.74133 95.034 6.424C95.7167 7.10666 96.058 7.91733 96.058 8.856V91.544C96.058 92.4827 95.7167 93.2933 95.034 93.976C94.3513 94.6587 93.5407 95 92.602 95H69.434C68.4953 95 67.6847 94.6587 67.002 93.976C66.3193 93.2933 65.978 92.4827 65.978 91.544V56.472L57.53 70.296C56.1647 72.4293 54.586 73.496 52.794 73.496H43.834C42.042 73.496 40.4633 72.4293 39.098 70.296L30.65 56.472V91.544C30.65 92.4827 30.3087 93.2933 29.626 93.976C28.9433 94.6587 28.1327 95 27.194 95H4.026C3.08733 95 2.27667 94.6587 1.594 93.976C0.911334 93.2933 0.570001 92.4827 0.570001 91.544V8.856C0.570001 7.91733 0.911334 7.10666 1.594 6.424C2.27667 5.74133 3.08733 5.39999 4.026 5.39999H24.25C26.6393 5.39999 28.474 6.55199 29.754 8.856L48.314 39.576L66.874 8.856C68.154 6.55199 69.9887 5.39999 72.378 5.39999ZM109.495 28.44H131.127C133.09 28.44 134.455 29.464 135.223 31.512L145.719 60.696L156.599 31.512C157.452 29.464 158.903 28.44 160.951 28.44H182.327C183.095 28.44 183.778 28.7387 184.375 29.336C184.972 29.848 185.271 30.4027 185.271 31C185.271 31.5973 185.228 32.0667 185.143 32.408L149.047 116.248C148.194 118.296 146.7 119.32 144.567 119.32H123.575C122.807 119.32 122.124 119.064 121.527 118.552C121.015 118.04 120.759 117.4 120.759 116.632C120.759 115.949 120.802 115.523 120.887 115.352L131.127 90.776L106.423 32.408C106.338 32.152 106.295 31.8533 106.295 31.512C106.636 29.464 107.703 28.44 109.495 28.44ZM227.204 43.544L225.54 54.04H234.628L236.292 43.544H227.204ZM266.116 22.424C266.969 22.424 267.695 22.7653 268.292 23.448C268.975 24.0453 269.316 24.7707 269.316 25.624V40.728C269.316 41.5813 268.975 42.3493 268.292 43.032C267.695 43.6293 266.969 43.928 266.116 43.928H256.644L255.236 53.656H262.788C263.641 53.656 264.367 53.9973 264.964 54.68C265.647 55.2773 265.988 56.0027 265.988 56.856V73.24C265.988 74.0933 265.647 74.8613 264.964 75.544C264.367 76.1413 263.641 76.44 262.788 76.44H251.908L250.244 87.32C249.903 89.112 248.836 90.008 247.044 90.008H232.196C231.428 90.008 230.745 89.752 230.148 89.24C229.636 88.6427 229.38 87.96 229.38 87.192V86.936L231.044 76.44H222.724L221.06 87.32C220.719 89.112 219.652 90.008 217.86 90.008H203.012C202.244 90.008 201.561 89.752 200.964 89.24C200.452 88.6427 200.196 87.96 200.196 87.192V86.936L201.86 76.44H196.1C195.161 76.44 194.393 76.1413 193.796 75.544C193.199 74.8613 192.9 74.0933 192.9 73.24V56.856C192.9 56.0027 193.199 55.2773 193.796 54.68C194.393 53.9973 195.161 53.656 196.1 53.656H205.188L206.596 43.928H199.428C198.489 43.928 197.721 43.6293 197.124 43.032C196.527 42.3493 196.228 41.5813 196.228 40.728V25.624C196.228 24.7707 196.527 24.0453 197.124 23.448C197.721 22.7653 198.489 22.424 199.428 22.424H209.796L211.204 13.848C211.545 12.056 212.569 11.16 214.276 11.16H229.124C229.892 11.16 230.532 11.4587 231.044 12.056C231.641 12.568 231.94 13.208 231.94 13.976V14.36L230.66 22.424H238.98L240.388 13.848C240.729 12.056 241.753 11.16 243.46 11.16H258.308C259.076 11.16 259.716 11.4587 260.228 12.056C260.825 12.568 261.124 13.208 261.124 13.976V14.36L259.844 22.424H266.116ZM319.27 26.904V28.44H333.734C334.673 28.44 335.483 28.7813 336.166 29.464C336.849 30.1467 337.19 30.9573 337.19 31.896V47.384C337.19 48.3227 336.849 49.1333 336.166 49.816C335.483 50.4987 334.673 50.84 333.734 50.84H319.27V91.544C319.27 92.4827 318.929 93.2933 318.246 93.976C317.563 94.6587 316.753 95 315.814 95H293.414C292.475 95 291.665 94.6587 290.982 93.976C290.299 93.2933 289.958 92.4827 289.958 91.544V50.84H281.126C280.187 50.84 279.377 50.4987 278.694 49.816C278.011 49.1333 277.67 48.3227 277.67 47.384V31.896C277.67 30.9573 278.011 30.1467 278.694 29.464C279.377 28.7813 280.187 28.44 281.126 28.44H289.958V26.264C289.958 16.536 292.902 9.79466 298.79 6.03999C304.678 2.2 312.827 0.279999 323.238 0.279999H335.142C336.081 0.279999 336.891 0.62133 337.574 1.30399C338.257 1.98666 338.598 2.79733 338.598 3.73599V19.224C338.598 20.1627 338.257 20.9733 337.574 21.656C336.891 22.3387 336.081 22.68 335.142 22.68H324.774C321.105 22.68 319.27 24.088 319.27 26.904ZM345.605 75.928C345.605 64.408 354.949 57.0267 373.637 53.784L387.205 51.608C387.205 49.048 386.992 47.3413 386.565 46.488C386.138 45.5493 385.114 45.08 383.493 45.08C381.957 45.08 380.421 45.7627 378.885 47.128C377.349 48.4933 375.898 49.176 374.533 49.176H352.773C350.896 49.176 349.957 48.28 349.957 46.488C349.957 44.6107 350.597 42.648 351.877 40.6C353.242 38.4667 355.162 36.376 357.637 34.328C360.197 32.28 363.738 30.5733 368.261 29.208C372.869 27.8427 377.989 27.16 383.621 27.16C395.056 27.16 403.632 29.5493 409.349 34.328C415.066 39.1067 417.925 45.9333 417.925 54.808V91.544C417.925 92.4827 417.584 93.2933 416.901 93.976C416.218 94.6587 415.408 95 414.469 95H392.069C391.13 95 390.32 94.6587 389.637 93.976C388.954 93.2933 388.613 92.4827 388.613 91.544V87.96C384.602 93.5067 378.757 96.28 371.077 96.28C363.397 96.28 357.21 94.36 352.517 90.52C347.909 86.5947 345.605 81.7307 345.605 75.928ZM379.269 77.336C384.816 77.336 387.589 74.008 387.589 67.352L380.037 69.016C376.282 69.8693 374.405 71.448 374.405 73.752C374.405 74.776 374.832 75.6293 375.685 76.312C376.538 76.9947 377.733 77.336 379.269 77.336ZM474.953 95H454.473C452.681 95 451.273 93.9333 450.249 91.8L425.673 32.536C425.588 32.28 425.545 31.8533 425.545 31.256C425.545 30.6587 425.844 30.0613 426.441 29.464C427.038 28.8667 427.764 28.568 428.617 28.568H450.249C452.297 28.568 453.705 29.592 454.473 31.64L464.713 61.336L474.953 31.512C475.721 29.464 477.129 28.44 479.177 28.44H500.809C501.662 28.44 502.388 28.7387 502.985 29.336C503.582 29.9333 503.881 30.5307 503.881 31.128C503.881 31.7253 503.838 32.152 503.753 32.408L479.177 91.8C478.153 93.9333 476.745 95 474.953 95Z" fill="#2AAA8A"/>
</svg>
