<svg xmlns="http://www.w3.org/2000/svg" xmlns:xlink="http://www.w3.org/1999/xlink" version="1.1" width="300" height="30" viewBox="0 0 300 30" xml:space="preserve">
<desc>Created with Fabric.js 3.5.0</desc>
<defs>
</defs>
<rect x="0" y="0" width="100%" height="100%" fill="rgba(255,255,255,0)"/>
<g transform="matrix(1 0 0 1 500 500)" style="" id="150155">
		
<path xml:space="preserve" font-family="Mitr" font-size="108" font-style="normal" font-weight="bold" style="stroke: none; stroke-width: 0; stroke-dasharray: none; stroke-linecap: butt; stroke-dashoffset: 0; stroke-linejoin: miter; stroke-miterlimit: 4; is-custom-font: none; font-file-url: none; fill: rgb(42,170,138); fill-rule: nonzero; opacity: 1; white-space: pre;" d="M-195.86 33.93Q-199.42 33.93-200.88 32.42Q-202.34 30.90-202.34 27.77L-202.34 27.77L-202.34-33.46Q-202.34-36.60-200.88-38.05Q-199.42-39.51-195.75-39.51L-195.75-39.51L-183.33-39.51Q-180.95-39.51-179.55-38.92Q-178.15-38.32-177.39-36.60L-177.39-36.60L-164.75-4.95L-152.12-36.60Q-151.36-38.32-149.96-38.92Q-148.55-39.51-146.18-39.51L-146.18-39.51L-133.76-39.51Q-130.09-39.51-128.63-38.05Q-127.17-36.60-127.17-33.46L-127.17-33.46L-127.17 27.77Q-127.17 30.90-128.63 32.42Q-130.09 33.93-133.65 33.93L-133.65 33.93L-144.02 33.93Q-147.58 33.93-149.09 32.42Q-150.61 30.90-150.61 27.77L-150.61 27.77L-150.61-1.71L-156.98 12.98Q-158.27 16.11-159.79 17.46Q-161.30 18.81-164.75 18.81L-164.75 18.81Q-168.21 18.81-169.72 17.46Q-171.23 16.11-172.53 12.98L-172.53 12.98L-178.90-1.71L-178.90 27.77Q-178.90 30.90-180.36 32.42Q-181.82 33.93-185.49 33.93L-185.49 33.93L-195.86 33.93ZM-103.19 50.78Q-113.24 50.78-119.83 45.05L-119.83 45.05Q-121.12 44.08-121.12 42.89L-121.12 42.89Q-121.12 41.81-120.37 40.62L-120.37 40.62L-115.29 31.77Q-114.32 30.15-113.24 30.15L-113.24 30.15Q-112.37 30.15-110.86 31.01L-110.86 31.01Q-109.24 31.98-108 32.42Q-106.76 32.85-105.03 32.85L-105.03 32.85Q-101.47 32.85-100.60 29.93L-100.60 29.93L-121.12-13.27Q-121.77-14.56-121.77-15.64L-121.77-15.64Q-121.77-17.91-119.29-17.91L-119.29-17.91L-100.06-17.91Q-96.93-17.91-95.85-15.00L-95.85-15.00L-89.15 5.09L-82.46-15.00Q-81.38-17.91-78.25-17.91L-78.25-17.91L-59.02-17.91Q-56.65-17.91-56.65-15.64L-56.65-15.64Q-56.65-14.67-57.19-13.27L-57.19-13.27L-77.17 29.07Q-80.73 36.74-84.19 41.38Q-87.64 46.02-92.23 48.40Q-96.82 50.78-103.19 50.78L-103.19 50.78ZM-50.06 33.93Q-52.43 33.93-52.43 31.66L-52.43 31.66Q-52.43 30.69-51.89 29.28L-51.89 29.28L-48.65 20.75L-49.09 20.75Q-52.54 20.75-53.78 19.29Q-55.03 17.84-55.03 14.60L-55.03 14.60L-55.03 9.09Q-55.03 5.85-53.78 4.39Q-52.54 2.93-49.09 2.93L-49.09 2.93L-41.96 2.93L-38.72-5.60L-41.53-5.60Q-44.98-5.60-46.22-7.06Q-47.47-8.52-47.47-11.76L-47.47-11.76L-47.47-17.26Q-47.47-20.50-46.22-21.96Q-44.98-23.42-41.53-23.42L-41.53-23.42L-32.02-23.42L-27.05-36.60Q-25.97-39.51-22.84-39.51L-22.84-39.51L-5.13-39.51Q-2.75-39.51-2.75-37.24L-2.75-37.24Q-2.75-36.27-3.29-34.87L-3.29-34.87L-7.61-23.42L0.70-23.42L5.67-36.60Q6.75-39.51 9.88-39.51L9.88-39.51L27.59-39.51Q29.97-39.51 29.97-37.24L29.97-37.24Q29.97-36.27 29.43-34.87L29.43-34.87L25.11-23.42L25.33-23.42Q28.78-23.42 30.02-21.96Q31.27-20.50 31.27-17.26L31.27-17.26L31.27-11.76Q31.27-8.52 30.02-7.06Q28.78-5.60 25.33-5.60L25.33-5.60L18.41-5.60L15.17 2.93L21.55 2.93Q25.00 2.93 26.24 4.39Q27.49 5.85 27.49 9.09L27.49 9.09L27.49 14.60Q27.49 17.84 26.24 19.29Q25.00 20.75 21.55 20.75L21.55 20.75L8.48 20.75L4.59 31.01Q3.51 33.93 0.38 33.93L0.38 33.93L-17.33 33.93Q-19.71 33.93-19.71 31.66L-19.71 31.66Q-19.71 30.69-19.17 29.28L-19.17 29.28L-15.93 20.75L-24.25 20.75L-28.13 31.01Q-29.21 33.93-32.35 33.93L-32.35 33.93L-50.06 33.93ZM-17.55 2.93L-9.23 2.93L-5.99-5.60L-14.31-5.60L-17.55 2.93ZM47.68 33.93Q44.12 33.93 42.66 32.42Q41.20 30.90 41.20 27.77L41.20 27.77L41.20-0.63L38.29-0.63Q34.83-0.63 33.59-2.09Q32.35-3.55 32.35-6.79L32.35-6.79L32.35-11.76Q32.35-15.00 33.59-16.45Q34.83-17.91 38.29-17.91L38.29-17.91L41.20-17.91L41.20-18.45Q41.20-29.36 47.25-35.25Q53.30-41.13 65.61-41.13L65.61-41.13Q77.92-41.13 84.83-36.16L84.83-36.16Q86.24-35.19 86.24-34.00L86.24-34.00Q86.24-33.25 85.59-32.06L85.59-32.06L81.05-24.39Q80.30-22.99 79.11-22.99L79.11-22.99Q78.46-22.99 77.38-23.53L77.38-23.53Q75.33-24.61 72.20-24.61L72.20-24.61Q69.50-24.61 68.31-23.31Q67.12-22.02 67.12-19.53L67.12-19.53L67.12-17.91L74.14-17.91Q77.60-17.91 78.84-16.45Q80.08-15.00 80.08-11.76L80.08-11.76L80.08-6.79Q80.08-3.55 78.84-2.09Q77.60-0.63 74.14-0.63L74.14-0.63L67.12-0.63L67.12 27.77Q67.12 30.90 65.66 32.42Q64.21 33.93 60.53 33.93L60.53 33.93L47.68 33.93ZM107.30 35.55Q97.36 35.55 91.31 28.91Q85.27 22.26 85.27 10.28L85.27 10.28Q85.27 1.42 89.80-5.38Q94.34-12.19 102.38-15.86Q110.43-19.53 120.47-19.53L120.47-19.53Q129.11-19.53 135.11-17.86Q141.10-16.18 146.83-12.40L146.83-12.40L146.83 30.36Q146.83 32.52 146.02 33.23Q145.21 33.93 142.72 33.93L142.72 33.93L129.11 33.93Q127.93 33.93 127.28 33.60Q126.63 33.28 126.09 32.42L126.09 32.42L124.36 29.72Q121.23 32.63 117.13 34.09Q113.02 35.55 107.30 35.55L107.30 35.55ZM116.91 18.38Q119.61 18.38 121.34 16.86Q123.07 15.35 123.07 12.65L123.07 12.65L123.07-2.04Q122.09-2.47 120.47-2.47L120.47-2.47Q116.05-2.47 113.56 0.83Q111.08 4.12 111.08 10.28L111.08 10.28Q111.08 18.38 116.91 18.38L116.91 18.38ZM179.01 33.93Q176.74 33.93 175.55 33.01Q174.37 32.09 173.29 29.82L173.29 29.82L152.87-13.27Q152.23-14.56 152.23-15.64L152.23-15.64Q152.23-17.91 154.71-17.91L154.71-17.91L173.93-17.91Q177.07-17.91 178.15-15.00L178.15-15.00L184.84 5.09L191.54-15.00Q192.62-17.91 195.75-17.91L195.75-17.91L214.97-17.91Q217.46-17.91 217.46-15.64L217.46-15.64Q217.46-14.56 216.81-13.27L216.81-13.27L196.51 29.82Q195.43 32.20 194.24 33.06Q193.05 33.93 190.78 33.93L190.78 33.93L179.01 33.93Z"/></g>
</svg>